<svg enable-background="new 0 0 206.1 47.2" viewBox="0 0 206.1 47.2" xmlns="http://www.w3.org/2000/svg" xmlns:xlink="http://www.w3.org/1999/xlink">
	<linearGradient id="a" gradientUnits="userSpaceOnUse" x1="3.5582" x2="66.4433" y1="32.6264" y2="14.5944">
		<stop offset=".02" stop-color="#0045ff"></stop>
		<stop offset=".1905" stop-color="#005fee"></stop>
		<stop offset=".746" stop-color="#01b2b8"></stop>
		<stop offset="1" stop-color="#01d2a3"></stop>
	</linearGradient>
	<path d="m46 37.5c0 .1 0 .2.1.2-.1-.1-.1-.1-.1-.2z" fill="#0045ff"></path>
	<path d="m24 9.8c0-.1 0-.2-.1-.2.1 0 .1.1.1.2z" fill="#0045ff"></path>
	<path class="st6" d="m67.1 19.3-14.5-14.4c-2.4-2.4-6.4-2.4-8.8 0l-.6.6c-.9.9-2.4.9-3.3 0l-3.1-3.1c-.9-.9-2.4-.9-3.3 0s-.9 2.4 0 3.3l16.4 16.3c.9.9.9 2.4 0 3.3l-6.6 6.6c-.9.9-2.4.9-3.3 0s-.9-2.4 0-3.3c.1-.1.3-.3.4-.5l2.9-2.9c.9-.9.9-2.4 0-3.3-.2-.2-1.5-1.5-3.2-3.2 0 0-.1-.1-.1-.1s-.1-.1-.1-.1l-13.7-13.6c-2.4-2.4-6.3-2.4-8.8 0l-14.4 14.3c-2.4 2.4-2.4 6.3-.1 8.7l14.4 14.4c2.4 2.4 6.4 2.4 8.8 0l.6-.6c.9-.9 2.4-.9 3.3 0l3.1 3.1c.9.9 2.4.9 3.3 0s.9-2.4 0-3.3l-16.3-16.2c-.9-.9-.9-2.4 0-3.3l6.6-6.6c.9-.9 2.4-.9 3.3 0s.9 2.4 0 3.3-.1.1-.1.1c-1.6 1.6-3 3-3.2 3.2-.9.9-.9 2.4 0 3.3l5.7 5.7 11.4 11.4c2.4 2.4 6.3 2.4 8.8 0l14.4-14.4c2.4-2.4 2.4-6.2.1-8.7zm-43-8.8v.2.2.1c0 .2-.1.3-.2.5s-.2.4-.4.5l-10 10c-.9.9-.9 2.4 0 3.3.5.5 9.9 9.9 9.9 9.9.9.9.9 2.4 0 3.3s-2.4.9-3.3 0l-13.2-13.3c-.9-.9-.9-2.4 0-3.3l13.2-13.2c.9-.9 2.4-.9 3.3 0 .2.2.4.5.5.8.1.1.1.2.1.3v.1s0 0 0-.1v.1.1.1-.1.2s0 0 0-.1v.1c.1.2.1.2.1.3zm12.5 14.7c-.9.9-2.4.9-3.3 0s-.9-2.4 0-3.3 2.4-.9 3.3 0c.9 1 .9 2.4 0 3.3zm26.5.1-13.2 13.2c-.9.9-2.4.9-3.3 0-.2-.2-.4-.5-.5-.8 0-.1-.1-.2-.1-.2s0 0 0-.1v.1-.1c0-.1 0-.1 0-.2v.1-.1.1c0-.1 0-.1 0-.2v.1-.1.1c0-.6.2-1.3.7-1.8l-.2.2c-.1.1-.1.2-.2.2.1-.2.2-.4.4-.5l9.9-9.9c.9-.9.9-2.4 0-3.3-.6-.7-10.1-10.1-10.1-10.1-.9-.9-.9-2.4 0-3.3s2.4-.9 3.3 0l13.3 13.3c.9.9.9 2.4 0 3.3z"></path>
</svg>